HIERARCHY
ROOT Hips
{
    OFFSET 0.000000 0.000000 0.000000
    CHANNELS 6 Xposition Yposition Zposition Zrotation Xrotation Yrotation
    JOINT Spine
    {
        OFFSET 0.000000 0.079876 -0.000000
        CHANNELS 3 Zrotation Xrotation Yrotation
        JOINT Spine1
        {
            OFFSET -0.000000 0.216424 0.000000
            CHANNELS 3 Zrotation Xrotation Yrotation
            JOINT Neck
            {
                OFFSET -0.000000 0.220901 -0.000000
                CHANNELS 3 Zrotation Xrotation Yrotation
                JOINT Head
                {
                    OFFSET -0.000000 0.130646 0.017470
                    CHANNELS 3 Zrotation Xrotation Yrotation
                    End Site
                    {
                        OFFSET 0.000000 0.174695 0.000000
                    }
                }
            }
            JOINT LeftShoulder
            {
                OFFSET 0.034919 0.173753 -0.002721
                CHANNELS 3 Zrotation Xrotation Yrotation
                JOINT LeftArm
                {
                    OFFSET 0.102892 0.000000 0.000000
                    CHANNELS 3 Zrotation Xrotation Yrotation
                    JOINT LeftForeArm
                    {
                        OFFSET 0.249949 -0.000000 0.000000
                        CHANNELS 3 Zrotation Xrotation Yrotation
                        JOINT LeftHand
                        {
                            OFFSET 0.237910 0.000000 -0.000000
                            CHANNELS 3 Zrotation Xrotation Yrotation
                            JOINT LeftHandThumb1
                            {
                                OFFSET 0.018256 -0.020745 0.029043
                                CHANNELS 3 Zrotation Xrotation Yrotation
                                JOINT LeftHandThumb2
                                {
                                    OFFSET 0.027572 0.000000 0.000000
                                    CHANNELS 3 Zrotation Xrotation Yrotation
                                    JOINT LeftHandThumb3
                                    {
                                        OFFSET 0.023566 0.000000 -0.000000
                                        CHANNELS 3 Zrotation Xrotation Yrotation
                                        End Site
                                        {
                                            OFFSET 0.020585 0.000000 0.000000
                                        }
                                    }
                                }
                            }
                            JOINT LeftHandIndex1
                            {
                                OFFSET 0.074682 0.000000 0.029043
                                CHANNELS 3 Zrotation Xrotation Yrotation
                                JOINT LeftHandIndex2
                                {
                                    OFFSET 0.041490 0.000000 -0.000000
                                    CHANNELS 3 Zrotation Xrotation Yrotation
                                    JOINT LeftHandIndex3
                                    {
                                        OFFSET 0.020745 0.000000 -0.000000
                                        CHANNELS 3 Zrotation Xrotation Yrotation
                                        End Site
                                        {
                                            OFFSET 0.018120 0.000000 0.000000
                                        }
                                    }
                                }
                            }
                            JOINT LeftHandMiddle1
                            {
                                OFFSET 0.074682 -0.000000 0.009626
                                CHANNELS 3 Zrotation Xrotation Yrotation
                                JOINT LeftHandMiddle2
                                {
                                    OFFSET 0.045639 -0.000000 -0.000000
                                    CHANNELS 3 Zrotation Xrotation Yrotation
                                    JOINT LeftHandMiddle3
                                    {
                                        OFFSET 0.024894 0.000000 -0.000000
                                        CHANNELS 3 Zrotation Xrotation Yrotation
                                        End Site
                                        {
                                            OFFSET 0.021744 0.000000 0.000000
                                        }
                                    }
                                }
                            }
                            JOINT LeftHandRing1
                            {
                                OFFSET 0.070533 -0.000000 -0.009626
                                CHANNELS 3 Zrotation Xrotation Yrotation
                                JOINT LeftHandRing2
                                {
                                    OFFSET 0.041490 -0.000000 -0.000000
                                    CHANNELS 3 Zrotation Xrotation Yrotation
                                    JOINT LeftHandRing3
                                    {
                                        OFFSET 0.020745 -0.000000 0.000000
                                        CHANNELS 3 Zrotation Xrotation Yrotation
                                        End Site
                                        {
                                            OFFSET 0.018120 0.000000 0.000000
                                        }
                                    }
                                }
                            }
                            JOINT LeftHandPinky1
                            {
                                OFFSET 0.066384 -0.000000 -0.029043
                                CHANNELS 3 Zrotation Xrotation Yrotation
                                JOINT LeftHandPinky2
                                {
                                    OFFSET 0.033192 -0.000000 -0.000000
                                    CHANNELS 3 Zrotation Xrotation Yrotation
                                    JOINT LeftHandPinky3
                                    {
                                        OFFSET 0.016596 -0.000000 0.000000
                                        CHANNELS 3 Zrotation Xrotation Yrotation
                                        End Site
                                        {
                                            OFFSET 0.014496 0.000000 0.000000
                                        }
                                    }
                                }
                            }
                        }
                    }
                }
            }
            JOINT RightShoulder
            {
                OFFSET -0.034919 0.173753 -0.002721
                CHANNELS 3 Zrotation Xrotation Yrotation
                JOINT RightArm
                {
                    OFFSET -0.102892 -0.000000 0.000000
                    CHANNELS 3 Zrotation Xrotation Yrotation
                    JOINT RightForeArm
                    {
                        OFFSET -0.249949 -0.000000 0.000000
                        CHANNELS 3 Zrotation Xrotation Yrotation
                        JOINT RightHand
                        {
                            OFFSET -0.237910 -0.000000 0.000000
                            CHANNELS 3 Zrotation Xrotation Yrotation
                            JOINT RightHandThumb1
                            {
                                OFFSET -0.018256 -0.020745 0.029043
                                CHANNELS 3 Zrotation Xrotation Yrotation
                                JOINT RightHandThumb2
                                {
                                    OFFSET -0.027572 -0.000000 0.000000
                                    CHANNELS 3 Zrotation Xrotation Yrotation
                                    JOINT RightHandThumb3
                                    {
                                        OFFSET -0.023566 -0.000000 0.000000
                                        CHANNELS 3 Zrotation Xrotation Yrotation
                                        End Site
                                        {
                                            OFFSET -0.020585 0.000000 0.000000
                                        }
                                    }
                                }
                            }
                            JOINT RightHandIndex1
                            {
                                OFFSET -0.074682 -0.000000 0.029043
                                CHANNELS 3 Zrotation Xrotation Yrotation
                                JOINT RightHandIndex2
                                {
                                    OFFSET -0.041490 0.000000 -0.000000
                                    CHANNELS 3 Zrotation Xrotation Yrotation
                                    JOINT RightHandIndex3
                                    {
                                        OFFSET -0.020745 -0.000000 0.000000
                                        CHANNELS 3 Zrotation Xrotation Yrotation
                                        End Site
                                        {
                                            OFFSET -0.018120 0.000000 0.000000
                                        }
                                    }
                                }
                            }
                            JOINT RightHandMiddle1
                            {
                                OFFSET -0.074682 -0.000000 0.009626
                                CHANNELS 3 Zrotation Xrotation Yrotation
                                JOINT RightHandMiddle2
                                {
                                    OFFSET -0.045639 0.000000 -0.000000
                                    CHANNELS 3 Zrotation Xrotation Yrotation
                                    JOINT RightHandMiddle3
                                    {
                                        OFFSET -0.024894 0.000000 -0.000000
                                        CHANNELS 3 Zrotation Xrotation Yrotation
                                        End Site
                                        {
                                            OFFSET -0.021744 0.000000 0.000000
                                        }
                                    }
                                }
                            }
                            JOINT RightHandRing1
                            {
                                OFFSET -0.070533 0.000000 -0.009626
                                CHANNELS 3 Zrotation Xrotation Yrotation
                                JOINT RightHandRing2
                                {
                                    OFFSET -0.041490 0.000000 -0.000000
                                    CHANNELS 3 Zrotation Xrotation Yrotation
                                    JOINT RightHandRing3
                                    {
                                        OFFSET -0.020745 0.000000 -0.000000
                                        CHANNELS 3 Zrotation Xrotation Yrotation
                                        End Site
                                        {
                                            OFFSET -0.018120 0.000000 0.000000
                                        }
                                    }
                                }
                            }
                            JOINT RightHandPinky1
                            {
                                OFFSET -0.066384 -0.000000 -0.029043
                                CHANNELS 3 Zrotation Xrotation Yrotation
                                JOINT RightHandPinky2
                                {
                                    OFFSET -0.033192 -0.000000 -0.000000
                                    CHANNELS 3 Zrotation Xrotation Yrotation
                                    JOINT RightHandPinky3
                                    {
                                        OFFSET -0.016596 -0.000000 0.000000
                                        CHANNELS 3 Zrotation Xrotation Yrotation
                                        End Site
                                        {
                                            OFFSET -0.014496 0.000000 0.000000
                                        }
                                    }
                                }
                            }
                        }
                    }
                }
            }
        }
    }
    JOINT LeftUpLeg
    {
        OFFSET 0.087347 0.000000 0.000000
        CHANNELS 3 Zrotation Xrotation Yrotation
        JOINT LeftLeg
        {
            OFFSET 0.000000 -0.321495 0.000000
            CHANNELS 3 Zrotation Xrotation Yrotation
            JOINT LeftFoot
            {
                OFFSET 0.000000 -0.470545 0.000000
                CHANNELS 3 Zrotation Xrotation Yrotation
                JOINT LeftToeBase
                {
                    OFFSET -0.000000 -0.056776 0.131021
                    CHANNELS 3 Zrotation Xrotation Yrotation
                    End Site
                    {
                        OFFSET 0.000000 0.000000 0.034939
                    }
                }
            }
        }
    }
    JOINT RightUpLeg
    {
        OFFSET -0.087347 -0.000000 -0.000000
        CHANNELS 3 Zrotation Xrotation Yrotation
        JOINT RightLeg
        {
            OFFSET -0.000000 -0.321495 0.000000
            CHANNELS 3 Zrotation Xrotation Yrotation
            JOINT RightFoot
            {
                OFFSET -0.000000 -0.470545 0.000000
                CHANNELS 3 Zrotation Xrotation Yrotation
                JOINT RightToeBase
                {
                    OFFSET 0.000000 -0.056776 0.131021
                    CHANNELS 3 Zrotation Xrotation Yrotation
                    End Site
                    {
                        OFFSET 0.000000 0.000000 0.034939
                    }
                }
            }
        }
    }
}
MOTION
Frames:    5
Frame Time:    0.016667
-0.237380    0.706172    1.425842    -8.145071    -5.751240    -115.206535    0.012827    0.640698    -1.146923    3.948729    14.523457    -2.103854    -11.851353    21.601042    26.213785    -23.488390    -16.628235    18.373421    9.798934    9.690969    -3.427873    -32.458096    11.279597    16.204823    -2.558779    -14.977819    -9.810246    25.080303    1.987961    16.717155    26.979942    37.716583    -45.754253    -22.867779    -4.684824    22.867783    -0.000000    0.000000    -0.000000    -3.147083    17.974556    -2.028643    -2.993339    0.000003    0.000005    -2.993342    -0.000000    0.000001    -2.993342    -0.000000    -1.500346    -2.993339    -0.000002    -0.000005    -2.993342    -0.000000    0.000009    -2.993340    -0.000001    1.000226    -2.993343    -0.000002    0.000004    -2.993339    0.000002    -0.000006    -3.147083    -17.974556    1.028399    -2.993341    -0.000000    0.000006    -2.993341    0.000001    -0.000001    -13.859537    8.069554    7.494041    5.395767    9.986406    -7.865931    0.000002    -0.000001    39.760262    9.729583    -2.044592    -11.754040    -26.979950    37.716579    45.754265    22.867779    -4.684808    -22.867792    -0.000000    0.000000    -0.000000    3.147079    17.974554    2.028637    2.993344    0.000007    0.000005    2.993334    -0.000007    0.000000    2.993338    -0.000002    1.500350    2.993342    -0.000000    -0.000001    2.993337    -0.000003    0.000003    2.993340    0.000003    -1.000230    2.993340    0.000000    0.000003    2.993342    -0.000004    -0.000004    3.147079    -17.974558    -1.028405    2.993340    -0.000000    -0.000005    2.993343    0.000000    0.000002    6.583394    -14.491507    -0.536089    -0.000001    46.684086    0.000002    -16.945677    -24.463293    -2.944846    0.000000    0.182231    -0.000002    -30.006016    -23.378836    17.669146    0.000002    42.086655    -0.000010    17.575039    -9.148778    19.939213    -0.000000    -5.987725    -0.000002    
-0.240105    0.707236    1.439215    -8.537234    -5.200276    -114.765160    0.019778    1.023408    -1.107193    4.578597    14.945226    -2.255274    -11.664417    21.743097    25.740963    -24.060160    -16.457638    17.886929    10.576374    9.673692    -3.755259    -31.694717    11.674118    15.788780    -2.582848    -15.172656    -9.779047    25.498642    2.015150    16.658419    26.882183    37.808540    -45.933838    -22.867775    -4.684811    22.867800    -0.000000    0.000000    -0.000000    -3.284874    17.972281    -2.165825    -3.124437    -0.000000    0.000005    -3.124434    -0.000002    0.000001    -3.124435    -0.000002    -1.590202    -3.124431    -0.000002    -0.000002    -3.124433    -0.000002    0.000002    -3.124431    -0.000001    1.060130    -3.124434    -0.000000    0.000004    -3.124434    -0.000000    0.000004    -3.284884    -17.972288    1.105685    -3.124435    0.000002    -0.000002    -3.124434    -0.000000    0.000002    -13.405600    7.969332    7.787443    5.868294    9.961917    -7.921323    -0.000002    -0.000001    41.086502    10.039720    -2.181515    -12.134305    -26.882200    37.808537    45.933853    22.867790    -4.684819    -22.867790    -0.000000    0.000000    -0.000000    3.284875    17.972286    2.165823    3.124436    0.000007    0.000005    3.124430    -0.000003    -0.000002    3.124433    0.000002    1.590201    3.124434    -0.000004    -0.000008    3.124432    0.000002    0.000006    3.124432    0.000000    -1.060135    3.124432    0.000002    0.000007    3.124434    0.000000    0.000001    3.284880    -17.972286    -1.105688    3.124433    0.000000    0.000001    3.124439    -0.000005    -0.000009    6.579982    -14.407936    0.658694    -0.000000    46.975903    0.000007    -17.381683    -24.773598    -4.352576    0.000000    0.141129    -0.000007    -30.399998    -23.477106    17.529116    0.000009    42.993393    -0.000009    17.354034    -6.684989    19.735395    0.000000    -5.694157    -0.000011    
-0.242850    0.707863    1.454169    -9.043998    -4.937686    -114.322556    0.030453    1.636010    -1.066556    4.960904    15.081203    -2.326108    -11.652557    21.711702    25.220112    -24.221699    -16.207691    17.356668    11.102184    9.684785    -3.978201    -30.753859    11.881227    15.337159    -2.624223    -15.300978    -9.853061    26.461357    2.138666    16.700909    26.770903    37.914757    -46.140244    -22.867790    -4.684820    22.867781    -0.000000    0.000000    -0.000000    -3.436925    17.969664    -2.325098    -3.269082    0.000002    0.000003    -3.269083    -0.000002    -0.000005    -3.269083    0.000002    -1.693295    -3.269084    -0.000002    0.000004    -3.269085    -0.000002    -0.000003    -3.269082    0.000002    1.128856    -3.269085    0.000001    0.000010    -3.269082    -0.000001    -0.000011    -3.436921    -17.969666    1.196238    -3.269085    0.000002    0.000011    -3.269083    -0.000001    -0.000006    -13.266668    7.844958    8.105104    6.761191    9.567657    -8.012664    -0.000004    -0.000001    42.504158    10.369730    -2.332587    -12.539557    -26.770903    37.914768    46.140255    22.867786    -4.684815    -22.867792    -0.000000    0.000000    -0.000000    3.436926    17.969664    2.325082    3.269085    0.000003    0.000001    3.269081    0.000007    0.000004    3.269085    0.000000    1.693290    3.269080    0.000002    0.000004    3.269085    -0.000002    -0.000005    3.269085    -0.000002    -1.128870    3.269081    0.000000    0.000003    3.269086    0.000002    0.000003    3.436928    -17.969667    -1.196243    3.269083    0.000004    0.000008    3.269083    0.000000    0.000005    5.993371    -14.603001    1.560307    -0.000002    47.675125    0.000008    -17.691656    -25.027285    -5.774636    0.000000    0.284114    -0.000002    -31.262537    -24.247978    16.670002    0.000000    44.734608    -0.000001    15.541436    -3.290262    19.525036    -0.000001    -6.567849    -0.000002    
-0.244937    0.708538    1.468171    -9.222327    -4.842391    -114.029701    0.030329    2.014554    -0.862686    5.091236    14.896513    -2.147815    -11.559765    21.851801    24.654263    -24.189228    -15.950642    16.831694    11.564072    9.746289    -4.235322    -29.645138    12.060182    14.850570    -2.673091    -15.448594    -9.941422    27.236635    2.328768    16.725857    26.662159    38.020199    -46.344006    -22.867775    -4.684808    22.867769    -0.000000    0.000000    -0.000000    -3.580524    17.967077    -2.483947    -3.405700    0.000000    -0.000004    -3.405697    0.000000    -0.000010    -3.405701    0.000001    -1.794868    -3.405702    -0.000002    -0.000007    -3.405703    -0.000001    -0.000007    -3.405704    -0.000002    1.196582    -3.405703    -0.000002    0.000003    -3.405697    0.000000    -0.000008    -3.580521    -17.967081    1.287374    -3.405703    -0.000002    -0.000000    -3.405703    0.000000    -0.000004    -13.022274    7.598505    8.287393    7.860183    8.885582    -7.960609    0.000005    0.000002    43.797817    10.669470    -2.474677    -12.908233    -26.662169    38.020172    46.344021    22.867792    -4.684804    -22.867788    -0.000000    0.000000    -0.000000    3.580521    17.967079    2.483952    3.405699    0.000002    0.000004    3.405704    0.000000    0.000005    3.405700    0.000002    1.794870    3.405698    0.000002    0.000008    3.405707    -0.000000    -0.000006    3.405699    -0.000000    -1.196576    3.405705    0.000002    -0.000004    3.405703    0.000000    -0.000000    3.580522    -17.967087    -1.287370    3.405704    0.000002    -0.000001    3.405705    0.000002    -0.000005    5.352269    -15.087023    2.271341    -0.000006    48.296871    0.000002    -17.660433    -25.261713    -6.605940    -0.000000    0.408043    0.000002    -31.615566    -25.638174    16.161381    -0.000004    46.985966    0.000006    12.621537    -0.848111    17.969463    0.000002    -6.959846    -0.000003    
-0.245996    0.709037    1.480769    -9.081235    -4.838122    -113.857063    0.022407    2.176294    -0.590064    4.964115    14.614525    -1.827791    -11.307796    21.926308    24.138605    -24.149740    -15.846324    16.370781    11.995545    9.891098    -4.415483    -28.398191    12.271790    14.397822    -2.714162    -15.739048    -9.913260    27.751362    2.418794    16.694332    26.555899    38.124798    -46.545109    -22.867786    -4.684810    22.867783    -0.000000    0.000000    -0.000000    -3.716147    17.964546    -2.642270    -3.534733    -0.000002    -0.000003    -3.534732    -0.000000    0.000001    -3.534734    -0.000002    -1.894950    -3.534735    -0.000002    0.000004    -3.534734    -0.000000    0.000000    -3.534737    -0.000001    1.263316    -3.534734    -0.000002    -0.000003    -3.534733    0.000002    0.000003    -3.716142    -17.964546    1.378999    -3.534731    -0.000002    -0.000002    -3.534734    0.000001    0.000005    -12.663062    7.316899    8.453970    8.977014    7.968312    -7.828650    -0.000004    -0.000002    44.978348    10.941785    -2.607847    -13.243691    -26.555895    38.124786    46.545124    22.867785    -4.684810    -22.867783    -0.000000    0.000000    -0.000000    3.716146    17.964548    2.642277    3.534737    -0.000000    -0.000003    3.534726    0.000000    0.000007    3.534730    0.000001    1.894954    3.534741    -0.000004    -0.000015    3.534732    0.000002    0.000002    3.534736    -0.000004    -1.263314    3.534731    0.000002    0.000007    3.534741    0.000005    -0.000001    3.716138    -17.964544    -1.378987    3.534731    0.000000    0.000003    3.534738    -0.000002    -0.000008    4.801190    -15.883011    2.815277    0.000009    48.894989    -0.000006    -17.611496    -25.418633    -7.201283    -0.000000    0.484611    -0.000001    -31.279657    -27.547163    16.050600    -0.000004    49.742561    0.000004    8.892312    0.388828    14.732983    -0.000001    -6.232109    0.000010    
